# xmcd
#
# Track frame offsets: 
#        150
#        21532
#        43187
#        67855
#        91816
#        112095
#        136772
#        158540
#        179883
#        202712
#        225354
#        251718
#
# Disc length: 3646 seconds
#
# Revision: 8
# Processed by: cddbd v1.5.2PL0 Copyright (c) Steve Scherf et al.
# Submitted via: ExactAudioCopyFreeDBPlugin 1.0
#
DISCID=9a0e3c0c
DTITLE=雷婷 - DTSES浪漫至极
DYEAR=2010
DGENRE=DTSES
TTITLE0=爱情的故事
TTITLE1=心甘情愿
TTITLE2=我是真的爱你
TTITLE3=不该让你等太久
TTITLE4=最浪漫的故事
TTITLE5=摘下满天星
TTITLE6=做你的爱人
TTITLE7=天长地久
TTITLE8=你是我一生最爱的人
TTITLE9=移情别恋
TTITLE10=太傻
TTITLE11=今生最爱
EXTD=
EXTT0=
EXTT1=
EXTT2=
EXTT3=
EXTT4=
EXTT5=
EXTT6=
EXTT7=
EXTT8=
EXTT9=
EXTT10=
EXTT11=
PLAYORDER=
